<?xml version="1.0" encoding="utf-8"?>
<!-- Generator: Adobe Illustrator 25.0.1, SVG Export Plug-In . SVG Version: 6.00 Build 0)  -->
<svg version="1.1" id="Layer_1" xmlns="http://www.w3.org/2000/svg" xmlns:xlink="http://www.w3.org/1999/xlink" x="0px" y="0px"
	 viewBox="0 0 1200.5 1076.9" style="enable-background:new 0 0 1200.5 1076.9;" xml:space="preserve">
<style type="text/css">
	.st0{fill:#FF30FF;}
	.st1{fill:url(#SVGID_1_);}
	.st2{fill:url(#SVGID_2_);}
	.st3{fill:#14F3FF;}
	.st4{fill:url(#SVGID_3_);}
	.st5{fill:#5408E8;}
</style>
<g>
	<path class="st0" d="M351.1,405.3L351.1,405.3c0.6,3.7,0.9,7.5,0.9,11.2C352,412.8,351.7,409.1,351.1,405.3z"/>
	<path class="st0" d="M546.5,750.6c-24.4-17.6-45-40-60.5-65.8c-17.3-28-28.5-59.2-32.8-91.8c-65.6-6.2-123.3-45.8-152.6-104.9l0,0
		c-28.4,9.7-59.8,1.5-79.9-20.7c-18,16.1-33.7,34.7-46.5,55.2c-1,13.3-1.7,26.7-1.7,40.2c-0.1,109,34.6,215.1,99.1,303
		c71.9-89.4,189.7-128.1,300.7-98.7C563.3,762.2,554.7,756.7,546.5,750.6z"/>
	
		<linearGradient id="SVGID_1_" gradientUnits="userSpaceOnUse" x1="348.55" y1="670.95" x2="354.6157" y2="664.8943" gradientTransform="matrix(1 0 0 -1 0 1078.86)">
		<stop  offset="0" style="stop-color:#5408E8;stop-opacity:0"/>
		<stop  offset="0.11" style="stop-color:#5408E8;stop-opacity:2.000000e-02"/>
		<stop  offset="0.2" style="stop-color:#5408E8;stop-opacity:0.13"/>
		<stop  offset="0.41" style="stop-color:#5408E8;stop-opacity:0.42"/>
		<stop  offset="0.7" style="stop-color:#5408E8;stop-opacity:0.88"/>
		<stop  offset="0.77" style="stop-color:#5408E8"/>
	</linearGradient>
	<path class="st1" d="M351.1,405.3L351.1,405.3c0.6,3.7,0.9,7.5,0.9,11.2C352,412.8,351.7,409.1,351.1,405.3z"/>
	
		<linearGradient id="SVGID_2_" gradientUnits="userSpaceOnUse" x1="160.2897" y1="551.5402" x2="486.185" y2="225.6449" gradientTransform="matrix(1 0 0 -1 0 1078.86)">
		<stop  offset="0" style="stop-color:#5408E8;stop-opacity:0"/>
		<stop  offset="0.11" style="stop-color:#5408E8;stop-opacity:2.000000e-02"/>
		<stop  offset="0.2" style="stop-color:#5408E8;stop-opacity:0.13"/>
		<stop  offset="0.41" style="stop-color:#5408E8;stop-opacity:0.42"/>
		<stop  offset="0.7" style="stop-color:#5408E8;stop-opacity:0.88"/>
		<stop  offset="0.77" style="stop-color:#5408E8"/>
	</linearGradient>
	<path class="st2" d="M546.5,750.6c-24.4-17.6-45-40-60.5-65.8c-17.3-28-28.5-59.2-32.8-91.8c-65.6-6.2-123.3-45.8-152.6-104.9l0,0
		c-28.4,9.7-59.8,1.5-79.9-20.7c-18,16.1-33.7,34.7-46.5,55.2c-1,13.3-1.7,26.7-1.7,40.2c-0.1,109,34.6,215.1,99.1,303
		c71.9-89.4,189.7-128.1,300.7-98.7C563.3,762.2,554.7,756.7,546.5,750.6z"/>
	<path class="st3" d="M276.5,492.1c41.7,0,75.6-33.8,75.6-75.6S318.2,341,276.5,341s-75.6,33.8-75.6,75.6c0,0,0,0,0,0
		C200.9,458.3,234.8,492.1,276.5,492.1"/>
	<path class="st3" d="M797.3,61c-123.2,53.9-214.7,166.7-239.1,302.8c25.9-16.9,54.9-28.5,85.2-34.2l0.3-0.1l2.5-0.4
		c13.6-2.4,27.3-3.6,41.1-3.6c129.8,0,235.1,105.2,235.1,235.1c0,6.2-0.2,12.4-0.7,18.5v0.4c-0.1,1.3-0.2,2.7-0.4,4
		c-10.9,116.6-106.8,208.4-225,213.1l-1.5,0.1l-3,0.1c-1.5,0-2.9,0-4.4,0.1h-0.8c-1.8,0-3.7,0-5.5-0.1h-0.8c-1.8,0-3.7-0.1-5.5-0.2
		l-0.8,0c-1.4-0.1-2.8-0.2-4.2-0.3l-2-0.2l-2.8-0.2c-32.6-3-64.2-12.7-92.8-28.7c-110.9-29.4-228.8,9.3-300.7,98.8
		c93.5,127.8,244.5,210.9,415,210.9c283.8,0,514-230.1,514-514C1200.5,317,1027.9,111.6,797.3,61z"/>
	
		<linearGradient id="SVGID_3_" gradientUnits="userSpaceOnUse" x1="471.0818" y1="731.4526" x2="1049.9802" y2="152.554" gradientTransform="matrix(1 0 0 -1 0 1078.86)">
		<stop  offset="0" style="stop-color:#5408E8;stop-opacity:0"/>
		<stop  offset="0.11" style="stop-color:#5408E8;stop-opacity:2.000000e-02"/>
		<stop  offset="0.23" style="stop-color:#5408E8;stop-opacity:0.13"/>
		<stop  offset="0.49" style="stop-color:#5408E8;stop-opacity:0.42"/>
		<stop  offset="0.87" style="stop-color:#5408E8;stop-opacity:0.88"/>
		<stop  offset="0.97" style="stop-color:#5408E8"/>
	</linearGradient>
	<path class="st4" d="M797.3,61c-123.2,53.9-214.7,166.7-239.1,302.8c25.9-16.9,54.9-28.5,85.2-34.2l0.3-0.1l2.5-0.4
		c13.6-2.4,27.3-3.6,41.1-3.6c129.8,0,235.1,105.2,235.1,235.1c0,6.2-0.2,12.4-0.7,18.5v0.4c-0.1,1.3-0.2,2.7-0.4,4
		c-10.9,116.6-106.8,208.4-225,213.1l-1.5,0.1l-3,0.1c-1.5,0-2.9,0-4.4,0.1h-0.8c-1.8,0-3.7,0-5.5-0.1h-0.8c-1.8,0-3.7-0.1-5.5-0.2
		l-0.8,0c-1.4-0.1-2.8-0.2-4.2-0.3l-2-0.2l-2.8-0.2c-32.6-3-64.2-12.7-92.8-28.7c-110.9-29.4-228.8,9.3-300.7,98.8
		c93.5,127.8,244.5,210.9,415,210.9c283.8,0,514-230.1,514-514C1200.5,317,1027.9,111.6,797.3,61z"/>
	<path class="st0" d="M584.3,273c41.7,0,75.6-33.8,75.6-75.5s-33.8-75.6-75.5-75.6s-75.6,33.8-75.6,75.5c0,0,0,0,0,0
		C508.7,239.2,542.6,273,584.3,273"/>
	<path class="st5" d="M372.3,166.5c36.8,0,66.7-29.8,66.7-66.6c0-36.8-29.8-66.7-66.6-66.7c-36.8,0-66.7,29.8-66.7,66.6c0,0,0,0,0,0
		C305.7,136.7,335.5,166.5,372.3,166.5"/>
	<path class="st3" d="M331.4,47.3c-35.5-43.5-99.5-49.9-143-14.4s-49.9,99.5-14.4,143s99.5,49.9,143,14.4
		c10.4-8.5,19.1-19,25.4-30.9c-32.9-16.5-46.2-56.4-29.7-89.3C317.2,61.2,323.6,53.4,331.4,47.3"/>
	<path class="st0" d="M48.6,97.2c26.8,0,48.6-21.8,48.6-48.6S75.4,0,48.6,0S0,21.8,0,48.6c0,0,0,0,0,0C0,75.4,21.8,97.2,48.6,97.2
		C48.6,97.2,48.6,97.2,48.6,97.2"/>
	<path class="st5" d="M130.8,294c19.6,0,35.4-15.9,35.4-35.4c0-19.6-15.9-35.4-35.4-35.4c-19.6,0-35.4,15.9-35.4,35.4c0,0,0,0,0,0
		C95.3,278.1,111.2,294,130.8,294C130.8,294,130.8,294,130.8,294"/>
	<path class="st5" d="M451.1,561.2c0-79.7,40.3-154,107.1-197.5c5.7-31.3,14.9-61.8,27.7-90.9c-0.5,0-1,0.1-1.6,0.1
		c-33.9,0-63.6-22.6-72.7-55.3c-13.3-2.9-26.9-4.4-40.6-4.4c-83.7,0-154.7,54-180.2,129.1c40.9,7.9,67.7,47.5,59.8,88.4
		c-5.2,26.7-24.3,48.6-50.1,57.3c29.3,59,87,98.7,152.6,104.8C451.8,582.4,451.1,571.9,451.1,561.2z"/>
</g>
</svg>
