<?xml version="1.0" encoding="utf-8"?>
<!-- Generator: Adobe Illustrator 25.0.1, SVG Export Plug-In . SVG Version: 6.00 Build 0)  -->
<svg version="1.1" id="Layer_1" xmlns="http://www.w3.org/2000/svg" xmlns:xlink="http://www.w3.org/1999/xlink" x="0px" y="0px"
	 viewBox="0 0 1200.5 1076.9" style="enable-background:new 0 0 1200.5 1076.9;" xml:space="preserve">
<style type="text/css">
	.st0{fill:#FF30FF;}
	.st1{fill:url(#SVGID_1_);}
	.st2{opacity:0.5;fill:#FFFFFF;enable-background:new    ;}
	.st3{fill:#FFFFFF;}
	.st4{opacity:0.3;fill:#FFFFFF;enable-background:new    ;}
	.st5{fill:url(#SVGID_2_);}
	.st6{fill:url(#SVGID_3_);}
	.st7{fill:none;}
</style>
<g>
	<path class="st0" d="M351.1,405.4L351.1,405.4c0.5,3.7,0.9,7.4,0.9,11.2C352,412.8,351.7,409.1,351.1,405.4z"/>
	
		<linearGradient id="SVGID_1_" gradientUnits="userSpaceOnUse" x1="348.525" y1="-2407.075" x2="354.5894" y2="-2413.1394" gradientTransform="matrix(1 0 0 -1 0 -1999.1)">
		<stop  offset="1.849689e-03" style="stop-color:#5408E8;stop-opacity:0"/>
		<stop  offset="0.1094" style="stop-color:#5408E8;stop-opacity:2.203273e-02"/>
		<stop  offset="0.771" style="stop-color:#5408E8"/>
	</linearGradient>
	<path class="st1" d="M351.1,405.4L351.1,405.4c0.5,3.7,0.9,7.4,0.9,11.2C352,412.8,351.7,409.1,351.1,405.4z"/>
	<path class="st2" d="M276.5,492.2c41.7,0,75.6-33.8,75.6-75.6c0-41.7-33.8-75.6-75.6-75.6c-41.7,0-75.6,33.8-75.6,75.6
		C200.9,458.3,234.7,492.2,276.5,492.2"/>
	<path class="st3" d="M372.3,166.5c36.8,0,66.6-29.8,66.6-66.6s-29.8-66.6-66.6-66.6s-66.6,29.8-66.6,66.6S335.5,166.5,372.3,166.5"
		/>
	<path class="st2" d="M331.4,47.4c-18.6-22.8-46.9-37.3-78.7-37.3c-56.1,0-101.6,45.5-101.6,101.6s45.5,101.6,101.6,101.6
		c38.9,0,72.6-21.8,89.7-53.9c-21.8-11-36.8-33.5-36.8-59.5C305.7,78.5,315.8,59.5,331.4,47.4"/>
	<path class="st4" d="M48.6,97.2c26.8,0,48.6-21.8,48.6-48.6S75.4,0,48.6,0C21.8,0,0,21.8,0,48.6C0,75.5,21.8,97.2,48.6,97.2"/>
	<path class="st3" d="M130.8,294c19.6,0,35.4-15.9,35.4-35.4s-15.9-35.4-35.4-35.4c-19.6,0-35.4,15.9-35.4,35.4S111.2,294,130.8,294
		"/>
	<path class="st3" d="M451.1,561.3c0-82.7,42.6-155.5,107.1-197.5c5.7-31.7,15.2-62.1,27.7-90.9c-0.5,0-1,0.1-1.6,0.1
		c-34.7,0-63.9-23.4-72.7-55.3c-13.1-2.8-26.6-4.4-40.6-4.4c-83.7,0-154.7,54-180.2,129.1c34.9,6.7,61.2,37.3,61.2,74.2
		c0,33.3-21.6,61.5-51.4,71.6c28.6,57.6,85.6,98.6,152.6,104.8C451.8,582.6,451.1,572,451.1,561.3z"/>
	<path class="st4" d="M584.3,273.1c41.7,0,75.6-33.8,75.6-75.6c0-41.7-33.8-75.6-75.6-75.6c-41.7,0-75.6,33.8-75.6,75.6
		C508.7,239.2,542.6,273.1,584.3,273.1"/>
	
		<linearGradient id="SVGID_2_" gradientUnits="userSpaceOnUse" x1="160.3073" y1="-2526.5574" x2="486.225" y2="-2852.4751" gradientTransform="matrix(1 0 0 -1 0 -1999.1)">
		<stop  offset="1.850000e-03" style="stop-color:#FFFFFF;stop-opacity:0.3"/>
		<stop  offset="0.1094" style="stop-color:#FFFFFF;stop-opacity:0.3"/>
		<stop  offset="0.8772" style="stop-color:#FFFFFF"/>
	</linearGradient>
	<path class="st5" d="M546.5,750.7c-24.6-17.8-45-40.1-60.5-65.8c-16.9-27.4-28.3-58.5-32.8-91.8c-67.1-6.2-124-47.3-152.6-104.9
		l0,0c-7.6,2.6-15.7,4-24.1,4c-22.1,0-41.9-9.5-55.7-24.7c-17.9,16.1-33.7,34.6-46.5,55.2c-1,13.3-1.7,26.7-1.7,40.2
		c0,113.4,36.9,218.1,99,303.1c53.3-66.1,134.9-108.4,226.4-108.4c25.7,0,50.6,3.4,74.3,9.7C563.3,762.3,554.7,756.7,546.5,750.7z"
		/>
	
		<linearGradient id="SVGID_3_" gradientUnits="userSpaceOnUse" x1="471.0627" y1="-2346.5596" x2="1049.9641" y2="-2925.4609" gradientTransform="matrix(1 0 0 -1 0 -1999.1)">
		<stop  offset="5.235602e-03" style="stop-color:#FFFFFF;stop-opacity:0.5"/>
		<stop  offset="0.1094" style="stop-color:#FFFFFF;stop-opacity:0.5"/>
		<stop  offset="0.9215" style="stop-color:#FFFFFF;stop-opacity:0.9574"/>
		<stop  offset="0.9973" style="stop-color:#FFFFFF"/>
	</linearGradient>
	<path class="st6" d="M797.3,61c-55.6,24.3-104.7,60.6-144.1,105.6c4.2,9.4,6.6,19.9,6.6,30.9c0,41.3-33.1,74.8-74.2,75.5
		c-12.5,28.7-21.8,59.1-27.5,90.8c25.4-16.6,54.3-28.4,85.2-34.1c0.1,0,0.2,0,0.3-0.1c0.8-0.2,1.7-0.3,2.5-0.4
		c13.3-2.4,27.1-3.6,41.1-3.6c129.8,0,235.1,105.2,235.1,235.1c0,6.2-0.2,12.4-0.7,18.5c0,0.1,0,0.3,0,0.4c-0.1,1.3-0.2,2.7-0.4,4
		c-10.9,116.6-106.8,208.4-225,213.1c-0.5,0-1,0-1.5,0.1c-1,0-2,0.1-3,0.1c-1.5,0-2.9,0.1-4.4,0.1c-0.2,0-0.4,0-0.6,0h-0.1h-0.1
		c-1.8,0-3.6,0-5.5-0.1c-0.3,0-0.5,0-0.8,0c-1.8,0-3.7-0.1-5.5-0.2c-0.3,0-0.5,0-0.8,0c-1.4-0.1-2.8-0.2-4.2-0.3
		c-0.7,0-1.3-0.1-2-0.1c-0.9-0.1-1.9-0.2-2.8-0.2c-33.5-3.1-64.9-13.1-92.8-28.7c-23.7-6.3-48.6-9.7-74.2-9.7
		c-91.5,0-173.1,42.3-226.4,108.4c93.5,127.7,244.5,210.8,415,210.8c283.9,0,514-230.1,514-514C1200.5,317.1,1027.9,111.7,797.3,61z
		"/>
</g>
<rect x="-359.8" y="-421.5" class="st7" width="1920" height="1920"/>
</svg>
