<?xml version="1.0" encoding="utf-8"?>
<!-- Generator: Adobe Illustrator 25.0.1, SVG Export Plug-In . SVG Version: 6.00 Build 0)  -->
<svg version="1.1" id="Layer_1" xmlns="http://www.w3.org/2000/svg" xmlns:xlink="http://www.w3.org/1999/xlink" x="0px" y="0px"
	 viewBox="0 0 4685 1934.2" style="enable-background:new 0 0 4685 1934.2;" xml:space="preserve">
<style type="text/css">
	.st0{fill:none;}
	.st1{fill:#FFFFFF;}
	.st2{fill:#FF30FF;}
	.st3{fill:url(#SVGID_1_);}
	.st4{opacity:0.5;fill:#FFFFFF;enable-background:new    ;}
	.st5{opacity:0.3;fill:#FFFFFF;enable-background:new    ;}
	.st6{fill:url(#SVGID_2_);}
	.st7{fill:url(#SVGID_3_);}
</style>
<rect x="1.8" class="st0" width="4681.5" height="1934.2"/>
<path class="st1" d="M2051.6,954.1c0,60.2-48.8,109-109,109.1c-60.2,0-109-48.8-109.1-109c0-60.2,48.8-109,109-109.1l0,0
	C2002.8,845.1,2051.6,893.9,2051.6,954.1 M2163.4,1009.6c30.7-121.9-43.2-245.6-165-276.3c-57.2-14.4-117.8-6.1-168.9,23.3V610.1
	c0-18-5.7-32.5-17.2-43.6c-11.4-11.1-26.2-16.7-44.1-16.6c-17.4,0-31.8,5.7-43.2,17.2s-17.1,25.8-17.2,43.2v352.8
	c0,64.2,22.2,118.5,66.6,162.9c44.4,44.4,98.7,66.6,162.9,66.6c64.2,0,118.6-22.2,163.3-66.6c33.4-33.2,54.3-71.9,62.7-116.1
	 M2550.5,1136.2c37.2-37.5,55.8-83.5,55.8-138.2V794.5c0-18-5.5-32.5-16.6-43.7c-11.1-11.1-25.6-16.7-43.6-16.6
	c-18,0-32.7,5.5-44.1,16.6c-11.4,11.1-17.2,25.7-17.2,43.7V998c0.4,19.3-7.1,38-20.7,51.8c-13.4,13.9-32,21.6-51.3,21.1
	c-39.9,0.4-72.5-31.6-72.9-71.5c0-0.5,0-0.9,0-1.4V796.4c0-18-5.7-32.7-17.2-44.1c-11.4-11.4-26.2-17.2-44.1-17.2
	s-32.5,5.7-43.6,17.2c-11.1,11.4-16.7,26.2-16.6,44.1V998c0,55.2,18.6,101.4,55.8,138.6s83.4,55.8,138.6,55.8
	C2467.4,1192.4,2513.3,1173.7,2550.5,1136.2 M2991.8,954.3c0,60.2-48.8,109-109,109.1c-60.2,0-109-48.8-109.1-109
	c0-60.2,48.8-109,109-109.1l0,0C2943,845.2,2991.8,894,2991.8,954.3 M3047.5,1125.9c44.7-44.4,67-98.7,67-162.9
	c0-50.8-13.8-95.2-41.1-133.4C3009,731,2880.1,697.8,2776.1,753V610.2c0-18-5.7-32.5-17.2-43.6c-11.4-11.1-26.2-16.7-44.1-16.6
	c-17.4,0-31.8,5.7-43.2,17.2c-11.4,11.4-17.1,25.8-17.2,43.2v352.8c0,64.2,22.2,118.5,66.6,162.9c44.4,44.4,98.7,66.6,162.9,66.6
	s118.6-22.2,163.4-66.6 M3498.5,954.3c0,60.2-48.8,109-109,109.1c-60.2,0-109-48.8-109.1-109c0-60.2,48.8-109,109-109.1l0,0
	C3449.7,845.3,3498.5,894.1,3498.5,954.3 M3555.2,1125.9c44.7-44.4,67.1-98.7,67.1-162.9c0-58.8-18.5-109.1-55.1-151.1
	c-68-85.1-186.8-110-283.3-59.4V610.3c0-18-5.7-32.5-17.2-43.6c-11.4-11.1-26.2-16.7-44.1-16.6c-17.4,0-31.8,5.7-43.2,17.2
	c-11.4,11.4-17.1,25.8-17.2,43.2v326.4c-0.5,5.9-0.9,11.7-0.9,17.7c0,8.9,0.6,17.8,1.7,26.7c3.8,56.4,25.6,104.7,65.8,144.9
	c44.4,44.4,98.7,66.6,162.9,66.6s118.6-22.2,163.3-66.6 M3774.2,1176c11.4-11.1,17.2-25.6,17.2-43.7V611.9
	c0-40.2-20.4-60.3-61.3-60.3c-18,0-32.5,5.5-43.6,16.6s-16.7,25.6-16.6,43.6V1132c0,18,5.5,32.5,16.6,43.7
	c11.1,11.1,25.6,16.7,43.6,16.6c18,0,32.7-5.5,44.1-16.6 M4226.8,1195.9V794.6c0-18-5.5-32.5-16.6-43.7
	c-11.1-11.1-25.6-16.7-43.6-16.6c-18,0-32.7,5.5-44.1,16.6s-17.2,25.7-17.2,43.7v203.5c0.4,19.4-7.1,38-20.7,51.8
	c-13.4,13.9-32,21.6-51.3,21.1c-39.9,0.4-72.5-31.6-72.9-71.5c0-0.5,0-0.9,0-1.4V794.6c0-40.2-20.4-60.3-61.3-60.3
	c-18,0-32.5,5.5-43.6,16.6s-16.7,25.7-16.6,43.7v203.5c0,55.2,18.6,101.4,55.8,138.6s83.4,55.8,138.6,55.8
	c24.6,0.1,49.1-4.5,72-13.5v17.2c-0.5,40.1-32.8,72.5-72.9,72.9h-3.6c-18,0-32.7,5.7-44.1,17.2c-11.4,11.4-17.2,26.2-17.2,44.1
	c0,18,5.7,32.5,17.2,43.6c11.4,11.1,26.2,16.7,44.1,16.6h3.6c54.6,0,100.6-18.7,138.2-56.2c37.5-37.5,56.3-83.5,56.2-138.2"/>
<g>
	<path class="st2" d="M636.2,802.5L636.2,802.5c0.5,3.7,0.9,7.4,0.9,11.2C637.1,809.9,636.8,806.2,636.2,802.5z"/>
	
		<linearGradient id="SVGID_1_" gradientUnits="userSpaceOnUse" x1="633.625" y1="-1947.075" x2="639.6895" y2="-1953.1394" gradientTransform="matrix(1 0 0 -1 0 -1142)">
		<stop  offset="1.849689e-03" style="stop-color:#5408E8;stop-opacity:0"/>
		<stop  offset="0.1094" style="stop-color:#5408E8;stop-opacity:2.203273e-02"/>
		<stop  offset="0.771" style="stop-color:#5408E8"/>
	</linearGradient>
	<path class="st3" d="M636.2,802.5L636.2,802.5c0.5,3.7,0.9,7.4,0.9,11.2C637.1,809.9,636.8,806.2,636.2,802.5z"/>
	<path class="st4" d="M561.6,889.3c41.7,0,75.6-33.8,75.6-75.6c0-41.7-33.8-75.6-75.6-75.6c-41.7,0-75.6,33.8-75.6,75.6
		C486,855.4,519.8,889.3,561.6,889.3"/>
	<path class="st1" d="M657.4,563.6c36.8,0,66.6-29.8,66.6-66.6s-29.8-66.6-66.6-66.6s-66.6,29.8-66.6,66.6S620.6,563.6,657.4,563.6"
		/>
	<path class="st4" d="M616.5,444.5c-18.6-22.8-46.9-37.3-78.7-37.3c-56.1,0-101.6,45.5-101.6,101.6s45.5,101.6,101.6,101.6
		c38.9,0,72.6-21.8,89.7-53.9c-21.8-11-36.8-33.5-36.8-59.5C590.8,475.6,600.9,456.6,616.5,444.5"/>
	<path class="st5" d="M333.7,494.3c26.8,0,48.6-21.8,48.6-48.6s-21.8-48.6-48.6-48.6c-26.8,0-48.6,21.8-48.6,48.6
		C285.1,472.6,306.9,494.3,333.7,494.3"/>
	<path class="st1" d="M415.9,691.1c19.6,0,35.4-15.9,35.4-35.4s-15.9-35.4-35.4-35.4c-19.6,0-35.4,15.9-35.4,35.4
		S396.3,691.1,415.9,691.1"/>
	<path class="st1" d="M736.2,958.4c0-82.7,42.6-155.5,107.1-197.5c5.7-31.7,15.2-62.1,27.7-90.9c-0.5,0-1,0.1-1.6,0.1
		c-34.7,0-63.9-23.4-72.7-55.3c-13.1-2.8-26.6-4.4-40.6-4.4c-83.7,0-154.7,54-180.2,129.1c34.9,6.7,61.2,37.3,61.2,74.2
		c0,33.3-21.6,61.5-51.4,71.6c28.6,57.6,85.6,98.6,152.6,104.8C736.9,979.7,736.2,969.1,736.2,958.4z"/>
	<path class="st5" d="M869.4,670.2c41.7,0,75.6-33.8,75.6-75.6c0-41.7-33.8-75.6-75.6-75.6c-41.7,0-75.6,33.8-75.6,75.6
		C793.8,636.3,827.7,670.2,869.4,670.2"/>
	
		<linearGradient id="SVGID_2_" gradientUnits="userSpaceOnUse" x1="445.4073" y1="-2066.5574" x2="771.3249" y2="-2392.4749" gradientTransform="matrix(1 0 0 -1 0 -1142)">
		<stop  offset="1.850000e-03" style="stop-color:#FFFFFF;stop-opacity:0.3"/>
		<stop  offset="0.1094" style="stop-color:#FFFFFF;stop-opacity:0.3"/>
		<stop  offset="0.8772" style="stop-color:#FFFFFF"/>
	</linearGradient>
	<path class="st6" d="M831.6,1147.8c-24.6-17.8-45-40.1-60.5-65.8c-16.9-27.4-28.3-58.5-32.8-91.8c-67.1-6.2-124-47.3-152.6-104.9
		l0,0c-7.6,2.6-15.7,4-24.1,4c-22.1,0-41.9-9.5-55.7-24.7c-17.9,16.1-33.7,34.6-46.5,55.2c-1,13.3-1.7,26.7-1.7,40.2
		c0,113.4,36.9,218.1,99,303.1c53.3-66.1,134.9-108.4,226.4-108.4c25.7,0,50.6,3.4,74.3,9.7C848.4,1159.4,839.8,1153.8,831.6,1147.8
		z"/>
	
		<linearGradient id="SVGID_3_" gradientUnits="userSpaceOnUse" x1="756.1626" y1="-1886.5594" x2="1335.0642" y2="-2465.4612" gradientTransform="matrix(1 0 0 -1 0 -1142)">
		<stop  offset="5.235602e-03" style="stop-color:#FFFFFF;stop-opacity:0.5"/>
		<stop  offset="0.1094" style="stop-color:#FFFFFF;stop-opacity:0.5"/>
		<stop  offset="0.9215" style="stop-color:#FFFFFF;stop-opacity:0.9574"/>
		<stop  offset="0.9973" style="stop-color:#FFFFFF"/>
	</linearGradient>
	<path class="st7" d="M1082.4,458.1c-55.6,24.3-104.7,60.6-144.1,105.6c4.2,9.4,6.6,19.9,6.6,30.9c0,41.3-33.1,74.8-74.2,75.5
		c-12.5,28.7-21.8,59.1-27.5,90.8c25.4-16.6,54.3-28.4,85.2-34.1c0.1,0,0.2,0,0.3-0.1c0.8-0.2,1.7-0.3,2.5-0.4
		c13.3-2.4,27.1-3.6,41.1-3.6c129.8,0,235.1,105.2,235.1,235.1c0,6.2-0.2,12.4-0.7,18.5c0,0.1,0,0.3,0,0.4c-0.1,1.3-0.2,2.7-0.4,4
		c-10.9,116.6-106.8,208.4-225,213.1c-0.5,0-1,0-1.5,0.1c-1,0-2,0.1-3,0.1c-1.5,0-2.9,0.1-4.4,0.1c-0.2,0-0.4,0-0.6,0h-0.1h-0.1
		c-1.8,0-3.6,0-5.5-0.1c-0.3,0-0.5,0-0.8,0c-1.8,0-3.7-0.1-5.5-0.2c-0.3,0-0.5,0-0.8,0c-1.4-0.1-2.8-0.2-4.2-0.3
		c-0.7,0-1.3-0.1-2-0.1c-0.9-0.1-1.9-0.2-2.8-0.2c-33.5-3.1-64.9-13.1-92.8-28.7c-23.7-6.3-48.6-9.7-74.2-9.7
		c-91.5,0-173.1,42.3-226.4,108.4c93.5,127.7,244.5,210.8,415,210.8c283.9,0,514-230.1,514-514
		C1485.6,714.2,1313,508.8,1082.4,458.1z"/>
</g>
</svg>
